<svg width="16" height="16" viewBox="0 0 16 16" fill="none" xmlns="http://www.w3.org/2000/svg">
<path d="M10.0001 13.9994V10.6661C10.0001 10.4893 9.92984 10.3197 9.80482 10.1947C9.67979 10.0697 9.51023 9.99943 9.33341 9.99943H6.66675C6.48994 9.99943 6.32037 10.0697 6.19534 10.1947C6.07032 10.3197 6.00008 10.4893 6.00008 10.6661V13.9994M11.8494 6.87276C11.7104 6.73972 11.5254 6.66546 11.333 6.66546C11.1407 6.66546 10.9557 6.73972 10.8167 6.87276C10.5067 7.16844 10.0948 7.3334 9.66638 7.3334C9.23799 7.3334 8.82604 7.16844 8.51605 6.87276C8.37711 6.73992 8.19228 6.66578 8.00005 6.66578C7.80782 6.66578 7.62299 6.73992 7.48405 6.87276C7.17402 7.16864 6.76194 7.33372 6.33338 7.33372C5.90483 7.33372 5.49274 7.16864 5.18272 6.87276C5.04374 6.73972 4.85877 6.66546 4.66638 6.66546C4.47399 6.66546 4.28903 6.73972 4.15005 6.87276C3.85061 7.15851 3.45556 7.32261 3.0418 7.33313C2.62804 7.34365 2.22516 7.19984 1.91159 6.92968C1.59801 6.65953 1.39618 6.28236 1.34537 5.87159C1.29457 5.46082 1.39842 5.04585 1.63672 4.70743L3.56272 1.9181C3.68492 1.73777 3.84945 1.59013 4.0419 1.48809C4.23436 1.38606 4.44888 1.33272 4.66672 1.33276H11.3334C11.5506 1.33268 11.7645 1.38566 11.9566 1.48709C12.1486 1.58852 12.313 1.73533 12.4354 1.91476L14.3654 4.70943C14.6037 5.04811 14.7075 5.46341 14.6563 5.87439C14.6052 6.28537 14.4029 6.66259 14.0888 6.93256C13.7748 7.20252 13.3714 7.34588 12.9574 7.3347C12.5434 7.32353 12.1484 7.15861 11.8494 6.8721M2.66675 7.29956V12.6662C2.66675 13.0198 2.80722 13.359 3.05727 13.609C3.30732 13.8591 3.64646 13.9996 4.00008 13.9996H12.0001C12.3537 13.9996 12.6928 13.8591 12.9429 13.609C13.1929 13.359 13.3334 13.0198 13.3334 12.6662V7.29956" stroke="#706963" stroke-width="1.5" stroke-linecap="round"/>
</svg>
